<?xml version="1.0" encoding="utf-8"?>
<!-- Generator: Adobe Illustrator 22.0.0, SVG Export Plug-In . SVG Version: 6.00 Build 0)  -->
<svg version="1.1" xmlns="http://www.w3.org/2000/svg" xmlns:xlink="http://www.w3.org/1999/xlink" x="0px" y="0px"
	 viewBox="0 0 21.6 19.4" style="enable-background:new 0 0 21.6 19.4;" xml:space="preserve">
<style type="text/css">
	.st0{display:none;}
	.st1{fill:none;stroke:#0A7EC2;stroke-miterlimit:10;}
</style>
<g id="ENCABEZADO" class="st0">
</g>
<g id="LOGIN" class="st0">
</g>
<g id="IDIOMAS" class="st0">
</g>
<g id="Capa_3" class="st0">
</g>
<g id="Capa_5">
	<g id="soporte_1_">
		<path class="st1" d="M19,7.9C19,7.4,18.6,7,18.1,7c-0.5,0-0.9,0.4-0.9,0.8c0,0.2,0,5.9,0,6.1c0,0.4,0.4,0.8,0.9,0.8
			c0.5,0,0.9-0.4,0.9-0.8C19,13.8,19,8.1,19,7.9z"/>
		<path class="st1" d="M12.1,18.9c0.5,0,0.9-0.4,0.9-0.8s-0.4-0.8-0.9-0.8c-0.2,0-1.9,0-2.1,0c-0.5,0-0.9,0.4-0.9,0.8
			s0.4,0.8,0.9,0.8C10.2,18.9,11.9,18.9,12.1,18.9z"/>
		<path class="st1" d="M3.5,7.5c0-3.8,3.3-6.9,7.3-6.9s7.3,3.1,7.3,6.9"/>
		<path class="st1" d="M19,7.9c1.2,0,2.1,1.4,2.1,3.1c0,1.7-1,3.1-2.1,3.1"/>
		<path class="st1" d="M2.7,7.9C2.7,7.4,3.1,7,3.5,7s0.9,0.4,0.9,0.8c0,0.2,0,5.9,0,6.1c0,0.4-0.4,0.8-0.9,0.8S2.7,14.4,2.7,14
			C2.7,13.8,2.7,8.1,2.7,7.9z"/>
		<path class="st1" d="M2.7,7.9c-1.2,0-2.1,1.4-2.1,3.1c0,1.7,1,3.1,2.1,3.1"/>
		<path class="st1" d="M18.1,14.8c0,2-1.3,3.3-3.4,3.3H13"/>
	</g>
</g>
</svg>
