<?xml version="1.0" encoding="utf-8"?>
<!-- Generator: Adobe Illustrator 27.1.1, SVG Export Plug-In . SVG Version: 6.00 Build 0)  -->
<svg version="1.1" id="Capa_1" xmlns="http://www.w3.org/2000/svg" xmlns:xlink="http://www.w3.org/1999/xlink" x="0px" y="0px"
	 viewBox="0 0 20.7 13.9" style="enable-background:new 0 0 20.7 13.9;" xml:space="preserve">
<style type="text/css">
	.st0{opacity:0.7;}
	.st1{fill:#0A7EC2;}
</style>
<g id="Capa_5">
	<g id="mensajes">
		<g class="st0">
			<path class="st1" d="M20.2,13.9H0.4c-0.2,0-0.4-0.2-0.4-0.4v-13C0,0.2,0.2,0,0.4,0h19.8c0.2,0,0.4,0.2,0.4,0.4v13
				C20.7,13.7,20.5,13.9,20.2,13.9z M0.9,13h18.9V0.9H0.9V13z"/>
			<path class="st1" d="M10.3,7.4c-0.1,0-0.2,0-0.2-0.1L0.2,0.8C0,0.7-0.1,0.4,0.1,0.2s0.4-0.3,0.6-0.1l9.7,6.4L20,0.1
				C20.2,0,20.5,0,20.6,0.2s0.1,0.5-0.1,0.6l-9.9,6.5C10.5,7.3,10.4,7.4,10.3,7.4z"/>
			<path class="st1" d="M0.4,13.9c-0.1,0-0.2,0-0.3-0.1c-0.2-0.2-0.1-0.4,0-0.6l8.5-7.4c0.2-0.2,0.4-0.1,0.6,0
				c0.2,0.2,0.1,0.4,0,0.6l-8.5,7.4C0.6,13.9,0.5,13.9,0.4,13.9z"/>
			<path class="st1" d="M20.2,13.9c-0.1,0-0.2,0-0.3-0.1l-8.5-7.4c-0.2-0.2-0.2-0.4,0-0.6s0.4-0.2,0.6,0l8.5,7.4
				c0.2,0.2,0.2,0.4,0,0.6C20.5,13.8,20.3,13.9,20.2,13.9z"/>
		</g>
	</g>
</g>
</svg>
