<?xml version="1.0" standalone="no"?>
<!DOCTYPE svg PUBLIC "-//W3C//DTD SVG 20010904//EN"
 "http://www.w3.org/TR/2001/REC-SVG-20010904/DTD/svg10.dtd">
<svg version="1.0" xmlns="http://www.w3.org/2000/svg"
 width="1308.000000pt" height="744.000000pt" viewBox="0 0 1308.000000 744.000000"
 preserveAspectRatio="xMidYMid meet">

<g transform="translate(0.000000,744.000000) scale(0.100000,-0.100000)"
fill="#000000" stroke="none">
<path d="M4259 7430 c-134 -40 -162 -217 -48 -302 85 -64 229 -11 259 95 35
127 -86 245 -211 207z"/>
<path d="M4116 5872 c-98 -620 -181 -1132 -185 -1138 -4 -7 -269 182 -676 483
-368 272 -675 497 -682 500 -8 3 -558 -395 -612 -443 -15 -14 30 -6 237 38
128 27 239 47 247 44 17 -6 29 -29 439 -821 186 -357 343 -656 350 -664 11
-11 200 -13 1101 -12 670 1 1095 6 1106 12 10 5 92 154 183 332 90 177 261
510 378 741 118 230 221 422 229 426 8 4 106 -11 229 -36 118 -24 223 -43 232
-42 10 2 -105 93 -283 225 l-301 221 -679 -509 c-530 -397 -679 -505 -683
-491 -3 9 -103 519 -222 1132 -119 613 -219 1118 -223 1122 -4 4 -87 -500
-185 -1120z m359 -394 c85 -439 155 -809 155 -823 0 -22 -47 -60 -327 -269
-181 -135 -329 -241 -331 -237 -3 8 323 2076 334 2121 4 14 8 21 10 15 2 -5
73 -369 159 -807z m1680 69 c18 -14 19 -16 3 -34 -9 -10 -186 -351 -393 -758
-208 -407 -382 -745 -389 -752 -14 -15 -1370 -31 -1379 -16 -3 5 470 365 1051
800 762 569 1061 788 1072 782 8 -4 24 -14 35 -22z m-2920 -473 c363 -267 663
-491 667 -497 3 -7 -13 -134 -37 -282 -24 -149 -44 -271 -45 -273 0 -1 -15
-11 -32 -22 -30 -18 -51 -20 -249 -20 -161 0 -219 3 -227 13 -5 6 -182 343
-392 747 -210 404 -391 745 -401 756 -20 21 -20 22 8 42 15 12 33 22 39 22 5
0 307 -218 669 -486z"/>
<path d="M1575 5336 c-86 -38 -120 -147 -75 -235 68 -134 271 -108 310 39 36
133 -108 252 -235 196z"/>
<path d="M6905 5284 c-47 -26 -63 -43 -81 -90 -36 -94 15 -195 114 -225 100
-30 212 56 212 163 -1 48 -33 112 -71 138 -42 31 -131 38 -174 14z"/>
<path d="M4060 3330 c-156 -33 -274 -86 -398 -180 -431 -325 -548 -1001 -251
-1456 165 -252 439 -401 798 -435 299 -28 597 46 804 200 403 298 525 898 278
1357 -127 236 -346 410 -611 487 -173 50 -455 63 -620 27z m435 -386 c149 -39
315 -163 393 -296 115 -195 123 -438 20 -638 -91 -178 -256 -304 -451 -344
-148 -31 -286 -12 -427 57 -163 80 -304 254 -345 428 -19 82 -19 238 0 314 77
304 366 519 670 499 44 -3 107 -12 140 -20z"/>
<path d="M5740 2310 l0 -1020 210 0 210 0 2 461 3 462 380 -461 380 -461 268
0 c148 -1 267 3 265 8 -1 4 -183 243 -403 530 -220 286 -401 524 -402 529 -2
4 179 222 402 484 223 263 405 480 405 483 0 3 -120 4 -267 3 l-267 -3 -347
-445 c-313 -402 -350 -445 -378 -448 l-31 -3 0 450 0 451 -215 0 -215 0 0
-1020z"/>
<path d="M7720 2315 l0 -1015 710 0 710 0 0 185 0 185 -485 0 -485 0 0 245 0
245 445 0 445 0 0 185 0 185 -445 0 -445 0 0 210 0 210 475 0 475 0 0 190 0
190 -700 0 -700 0 0 -1015z"/>
<path d="M9510 3143 l0 -188 131 -190 c72 -104 169 -245 216 -313 l85 -123
-216 7 -216 7 0 -522 0 -521 203 2 202 3 3 328 2 328 152 -3 152 -3 214 -327
214 -328 254 0 c140 0 254 3 253 8 0 4 -116 176 -258 382 l-258 375 69 32
c131 61 240 201 287 370 48 175 48 326 1 460 -56 158 -220 308 -417 380 -64
23 -67 23 -568 23 l-505 0 0 -187z m926 -229 c46 -22 111 -95 140 -157 30 -65
32 -144 4 -204 -22 -49 -114 -146 -133 -141 -10 3 -309 433 -348 501 -9 16 1
17 147 17 122 0 163 -3 190 -16z"/>
<path d="M2266 3273 c-3 -21 -6 -116 -6 -210 l0 -173 125 0 126 0 -3 -527 c-3
-521 -3 -529 -25 -569 -29 -54 -89 -107 -146 -129 -35 -13 -65 -16 -129 -12
-46 2 -93 8 -105 12 l-23 7 0 -201 0 -201 208 0 c226 0 290 10 390 57 79 37
170 130 213 218 l34 70 3 847 2 848 -329 0 -328 0 -7 -37z"/>
<path d="M10 1335 l0 -1335 6535 0 6535 0 0 1335 0 1335 -420 0 -420 0 0 -230
0 -230 185 0 185 0 0 -865 0 -865 -6055 0 -6055 0 0 905 0 905 245 0 245 0 0
190 0 190 -490 0 -490 0 0 -1335z"/>
</g>
</svg>
