<?xml version="1.0" encoding="utf-8"?>
<!-- Generator: Adobe Illustrator 27.9.0, SVG Export Plug-In . SVG Version: 6.00 Build 0)  -->
<svg version="1.1" id="Capa_1" xmlns="http://www.w3.org/2000/svg" xmlns:xlink="http://www.w3.org/1999/xlink" x="0px" y="0px"
	 viewBox="0 0 22 22" style="enable-background:new 0 0 22 22;" xml:space="preserve">
<style type="text/css">
	.st0{display:none;}
	.st1{display:inline;fill:#396EB5;}
	.st2{display:inline;fill:#FFFFFF;}
	.st3{display:none;fill:#010202;}
	.st4{fill:#E52521;}
	.st5{fill:#FFFFFF;}
</style>
<g class="st0">
	<path class="st1" d="M22,11c0-6.1-4.9-11-11-11S0,4.9,0,11c0,5.5,4,10,9.3,10.9v-7.7H6.5V11h2.8V8.6c0-2.8,1.6-4.3,4.2-4.3
		c1.2,0,2.5,0.2,2.5,0.2v2.7h-1.4c-1.4,0-1.8,0.8-1.8,1.7V11h3.1l-0.5,3.2h-2.6v7.7C18,21,22,16.5,22,11z"/>
	<path class="st2" d="M15.3,14.2l0.5-3.2h-3.1V8.9c0-0.9,0.4-1.7,1.8-1.7h1.4V4.5c0,0-1.3-0.2-2.5-0.2c-2.5,0-4.2,1.5-4.2,4.3V11
		H6.5v3.2h2.8v7.7C9.8,22,10.4,22,11,22s1.2,0,1.7-0.1v-7.7H15.3z"/>
</g>
<path class="st3" d="M13.1,9.3L21.3,0h-1.9l-7.1,8.1L6.6,0H0l8.6,12.2L0,22h1.9l7.5-8.5l6,8.5H22L13.1,9.3L13.1,9.3z M10.4,12.3
	l-0.9-1.2L2.6,1.4h3l5.6,7.8l0.9,1.2l7.3,10.2h-3L10.4,12.3L10.4,12.3z"/>
<g id="XMLID_184_">
	<path id="XMLID_182_" class="st4" d="M21.6,5.6c-0.3-1-1-1.7-2-2C17.9,3.2,11,3.2,11,3.2s-7,0-8.7,0.5c-1,0.3-1.7,1-2,2
		C-0.1,7.4-0.1,11-0.1,11s0,3.6,0.5,5.4c0.3,1,1,1.7,2,2C4,18.9,11,18.9,11,18.9s7,0,8.7-0.5c1-0.3,1.7-1,2-2
		c0.5-1.7,0.5-5.4,0.5-5.4S22.1,7.4,21.6,5.6z"/>
	<polygon id="XMLID_1355_" class="st5" points="8.7,14.3 14.5,11 8.7,7.7 	"/>
</g>
</svg>
